# File created by Blade
# Date/Time:  Thu Sep 25 19:36:54 2014
# Frame Rate: 120.000 fps
#------------------------------------------------------
:FULLY-SPECIFIED
:DEGREES
1306
root -3.399867 32.712822 2.225667 0.329278 3.287135 1.091630
Spine 2.057429 5.314697 -0.753221
Head -25.154900 0.782478 9.017377
LeftShoulder -14.325416 21.536846 4.488884
LeftArm 25.841475 28.463433 -66.860525
LeftForeArm -4.353803 -0.000000 20.667907
LeftHand -22.428897 -0.000000 -11.034033
LeftHandThumb1 -26.253704 0.000000 33.147579
RightShoulder -21.777250 10.816089 -17.287337
RightArm -16.195885 -35.721840 94.026177
RightForeArm -1.288451 0.000000 18.589845
RightHand -4.712479 -0.000000 19.530871
RightHandThumb1 -24.326973 -0.000000 -32.862282
LeftUpLeg 4.811067 1.212951 -0.283965
LeftLeg -0.934257 -0.000000 0.000000
LeftFoot -10.728123 3.012448 -18.825307
LeftToeBase 9.436475 -0.000000 -0.000000
RightUpLeg 4.830395 -4.300935 0.218737
RightLeg 3.147367 -0.000000 -0.000000
RightFoot -12.719751 -9.916017 0.739635
RightToeBase -0.154036 -0.000000 0.000000
1307
root -3.411806 32.710784 2.229309 0.377415 3.373073 1.095733
Spine 2.144688 5.314674 -0.836588
Head -25.120952 0.827788 9.193317
LeftShoulder -13.968652 21.537643 4.641371
LeftArm 26.408740 28.424540 -65.856502
LeftForeArm -4.725020 0.000000 19.903653
LeftHand -23.078047 -0.000000 -9.824331
LeftHandThumb1 -26.253704 0.000000 33.147579
RightShoulder -21.661717 10.792791 -17.349424
RightArm -15.842984 -35.798414 93.385387
RightForeArm -2.069683 -0.000000 18.509308
RightHand -4.898285 -0.000000 18.075256
RightHandThumb1 -24.326973 -0.000000 -32.862282
LeftUpLeg 4.798391 1.226036 -0.250617
LeftLeg -1.031439 -0.000000 0.000000
LeftFoot -10.629790 2.907970 -18.866128
LeftToeBase 9.425277 -0.000000 -0.000000
RightUpLeg 4.866515 -4.290748 0.256865
RightLeg 3.007076 -0.000000 -0.000000
RightFoot -12.697166 -10.023874 0.749106
RightToeBase -0.060893 -0.000000 0.000000
1308
root -3.414483 32.710108 2.223173 0.499871 3.449900 1.151917
Spine 2.193241 5.288626 -0.970159
Head -25.217248 0.929678 9.377343
LeftShoulder -13.765440 21.557980 4.719955
LeftArm 27.034019 28.292245 -64.935523
LeftForeArm -5.001919 0.000000 19.126552
LeftHand -23.841703 0.000000 -8.191165
LeftHandThumb1 -26.253704 0.000000 33.147579
RightShoulder -21.567177 10.800991 -17.412976
RightArm -15.504788 -36.052725 92.814705
RightForeArm -2.645443 -0.000000 18.407565
RightHand -5.197319 -0.000000 16.327498
RightHandThumb1 -24.326973 -0.000000 -32.862282
LeftUpLeg 4.688351 1.192553 -0.307274
LeftLeg -1.084460 -0.000000 0.000000
LeftFoot -10.568901 2.908847 -18.966294
LeftToeBase 9.510065 -0.000000 -0.000000
RightUpLeg 4.830768 -4.412279 0.216361
RightLeg 2.820959 -0.000000 -0.000000
RightFoot -12.609322 -10.024318 0.640692
RightToeBase -0.058045 -0.000000 0.000000
1309
root -3.419662 32.709971 2.213126 0.632944 3.520198 1.183154
Spine 2.242145 5.254453 -1.060259
Head -25.278597 0.995831 9.488526
LeftShoulder -13.616652 21.609561 4.770575
LeftArm 27.655138 27.964126 -64.197316
LeftForeArm -5.286911 -0.000000 18.355415
LeftHand -24.700927 -0.000000 -6.436467
LeftHandThumb1 -26.253704 0.000000 33.147579
RightShoulder -21.404624 10.847251 -17.493181
RightArm -15.233129 -36.176435 92.325823
RightForeArm -3.496783 -0.000000 18.297462
RightHand -5.573431 -0.000000 14.337742
RightHandThumb1 -24.326973 -0.000000 -32.862282
LeftUpLeg 4.559258 1.193887 -0.318701
LeftLeg -1.133390 -0.000000 0.000000
LeftFoot -10.457318 2.842263 -18.879019
LeftToeBase 9.427333 -0.000000 -0.000000
RightUpLeg 4.741618 -4.550371 0.198856
RightLeg 2.702702 -0.000000 -0.000000
RightFoot -12.553875 -9.950115 0.648420
RightToeBase -0.109291 -0.000000 0.000000
